<svg width="32" height="42" viewBox="0 0 32 42" fill="none" xmlns="http://www.w3.org/2000/svg">
<g clip-path="url(#clip0_11451_3185)">
<path d="M21.8471 26.4078L17.844 33.8951L20.152 35.1273L25.3748 25.3427L21.8552 26.4122L21.8471 26.4078ZM23.4633 31.7027L21.3064 35.7329L25.3422 37.8876L28.8694 36.8158L24.8387 34.6606L26.9901 30.631L23.4643 31.7024L23.4633 31.7027Z" fill="#02569B"/>
</g>
<g clip-path="url(#clip1_11451_3185)">
<path d="M24.1841 12.4899C22.7027 11.8853 21.4745 12.2481 20.4996 13.5783C21.3574 13.0644 22.1189 13.0511 22.784 13.5386C23.1636 13.8166 23.3403 14.2463 23.5363 14.7227C23.8556 15.4978 24.2246 16.3947 25.6013 16.9566C27.0827 17.5612 28.3108 17.1983 29.2858 15.8681C28.428 16.3821 27.6665 16.3953 27.0014 15.9079C26.6218 15.6298 26.4451 15.2002 26.249 14.7238C25.9302 13.9489 25.5613 13.0519 24.1841 12.4899ZM20.0462 14.6894C18.5648 14.0848 17.3366 14.4476 16.3617 15.7778C17.2195 15.2638 17.981 15.2506 18.6461 15.7381C19.0257 16.0161 19.2024 16.4458 19.3984 16.9221C19.7177 17.6973 20.0867 18.5942 21.4634 19.1561C22.9448 19.7606 24.1729 19.3978 25.1479 18.0676C24.2901 18.5816 23.5286 18.5948 22.8635 18.1073C22.4839 17.8293 22.3071 17.3997 22.1111 16.9233C21.7923 16.1483 21.4234 15.2514 20.0462 14.6894Z" fill="#06B6D4"/>
</g>
<g clip-path="url(#clip2_11451_3185)">
<path d="M10.6973 24.7036C10.445 21.854 9.08744 20.745 8.97537 20.3762C8.86305 20.1622 8.77672 19.8679 8.70772 19.6134C8.6567 19.8563 8.63455 19.9491 8.36921 20.165C7.97304 20.397 5.92343 21.6919 5.34894 24.812C4.81291 27.7224 6.83221 29.7732 7.10832 30.0371L7.13966 30.0665C7.13962 30.5468 7.13017 31.0269 7.11132 31.5067L7.34965 31.539C7.47531 31.0353 7.62819 30.5393 7.80814 30.052C8.0346 29.9333 8.13845 29.8631 8.27575 29.7656C8.92522 29.3097 9.47178 28.7226 9.8801 28.0422C10.2884 27.3619 10.5494 26.6034 10.6462 25.8158C10.7057 25.4131 10.7066 24.9854 10.6973 24.7036ZM7.50401 28.4064C7.50401 28.4064 8.05978 24.2983 8.19597 24.3173C8.30151 24.3315 7.72185 29.6493 7.72185 29.6493C7.53608 29.6015 7.46078 28.726 7.50401 28.4064Z" fill="#20C766"/>
</g>
<g clip-path="url(#clip3_11451_3185)">
<path d="M5.45801 12.8577C5.30829 12.7605 5.18079 12.6302 5.09196 12.4801L4.17254 10.8981C4.03172 10.6677 4.15407 10.6977 4.23445 10.7209C4.55989 10.8168 4.62711 10.8337 5.01033 10.8814C5.05023 10.8863 5.08672 10.9179 5.1076 10.9541L5.81296 12.1715C5.83955 12.2142 5.89319 12.249 5.93983 12.2537L11.357 12.887C11.4074 12.893 11.456 12.8712 11.4812 12.8325L14.1107 8.77841C14.1363 8.73887 14.1357 8.68569 14.1094 8.6403L11.3231 3.95499C11.2975 3.91171 11.2471 3.87904 11.1967 3.873L5.78312 3.24036C5.73078 3.23422 5.68073 3.25623 5.65586 3.29457L3.02636 7.34864C3.00123 7.38739 3.00258 7.44047 3.03031 7.48456L3.7933 8.76932C4.23349 9.42594 4.80657 9.36071 5.00708 9.05156L7.60316 5.04901C7.63995 4.9923 7.72187 4.98245 7.78811 5.02541L8.30816 5.36272C8.373 5.40477 8.39809 5.4846 8.36156 5.54092L5.76548 9.54346C5.31341 10.2404 4.61125 10.3525 3.83979 9.85209C3.60285 9.69841 3.41582 9.5771 3.03757 9.0191L2.30485 7.79085C2.12422 7.487 2.11963 7.13448 2.29035 6.87126L4.91985 2.81719C5.09057 2.55398 5.4148 2.41473 5.76516 2.45585L11.1839 3.08671C11.5253 3.1294 11.87 3.35297 12.0458 3.64578L14.831 8.33599C15.0116 8.63984 15.0174 8.99257 14.8467 9.25579L12.2172 13.3099C12.0464 13.5731 11.7223 13.7112 11.3707 13.671L5.95343 13.0388C5.78061 13.0192 5.61006 12.9563 5.45801 12.8577ZM11.3625 11.0089C11.8547 10.25 11.3869 9.65949 10.2187 8.69918C9.03841 7.7288 8.95719 7.57 9.12273 7.31478C9.25952 7.10389 9.55177 6.89339 10.4953 7.50539C11.3382 8.05205 11.548 8.40891 11.3603 8.97829C11.3417 9.03148 11.3689 9.0968 11.4239 9.13249L11.9561 9.47767C11.9892 9.49915 12.0285 9.50704 12.0638 9.50159C12.1002 9.49454 12.1302 9.47485 12.1459 9.44357C12.6068 8.55205 12.21 7.73971 10.8961 6.8875C9.72632 6.12877 8.75447 6.09878 8.29463 6.80774C7.79594 7.57662 8.35215 8.23926 9.41316 9.06249C10.6834 10.0464 10.6783 10.282 10.5317 10.5081C10.2771 10.9007 9.8005 10.8294 8.93622 10.2688C7.85086 9.56483 7.76335 9.17668 7.98312 8.66212C8.00592 8.60654 7.98005 8.53813 7.92082 8.49971L7.3905 8.15574C7.32473 8.11308 7.24301 8.12363 7.20648 8.17995C6.82255 8.77188 6.74098 9.72108 8.53623 10.8855C9.83635 11.7293 10.8659 11.7746 11.3625 11.0089Z" fill="#5FA04E"/>
</g>
<defs>
<clipPath id="clip0_11451_3185">
<rect width="12" height="12" fill="white" transform="translate(15 28.4893) rotate(-16.9021)"/>
</clipPath>
<clipPath id="clip1_11451_3185">
<rect width="12" height="12" fill="white" transform="translate(19.5342 8) rotate(22.2017)"/>
</clipPath>
<clipPath id="clip2_11451_3185">
<rect width="8.58953" height="12" fill="white" transform="translate(4.6084 19) rotate(7.7046)"/>
</clipPath>
<clipPath id="clip3_11451_3185">
<rect width="12" height="12" fill="white" transform="translate(7) rotate(32.9677)"/>
</clipPath>
</defs>
</svg>
